<?xml version="1.0" encoding="UTF-8" standalone="no"?><svg xmlns="http://www.w3.org/2000/svg" xmlns:xlink="http://www.w3.org/1999/xlink" contentStyleType="text/css" height="728px" preserveAspectRatio="none" style="width:697px;height:728px;background:#FFFFFF;" version="1.1" viewBox="0 0 697 728" width="697px" zoomAndPan="magnify"><defs/><g><!--MD5=[eaf9483de970066dec41c3e223875286]
cluster leaf--><g id="cluster_leaf"><polygon points="93.1094,216,128.1094,216,135.1094,238.2969,289.1094,238.2969,289.1094,665,93.1094,665,93.1094,216" style="stroke:#000000;stroke-width:1.5;fill:none;"/><line style="stroke:#000000;stroke-width:1.5;fill:none;" x1="93.1094" x2="135.1094" y1="238.2969" y2="238.2969"/><text fill="#000000" font-family="sans-serif" font-size="14" font-weight="bold" lengthAdjust="spacing" textLength="29" x="97.1094" y="230.9951">leaf</text></g><!--MD5=[6548aa67be5f72222644da5f87b4fcc6]
cluster branch--><g id="cluster_branch"><polygon points="413.1094,322,474.1094,322,481.1094,344.2969,627.1094,344.2969,627.1094,665,413.1094,665,413.1094,322" style="stroke:#000000;stroke-width:1.5;fill:none;"/><line style="stroke:#000000;stroke-width:1.5;fill:none;" x1="413.1094" x2="481.1094" y1="344.2969" y2="344.2969"/><text fill="#000000" font-family="sans-serif" font-size="14" font-weight="bold" lengthAdjust="spacing" textLength="55" x="417.1094" y="336.9951">branch</text></g><rect fill="#F1F1F1" height="33.9688" rx="12.5" ry="12.5" style="stroke:#181818;stroke-width:0.5;" width="163" x="109.6094" y="251"/><text fill="#000000" font-family="sans-serif" font-size="12" lengthAdjust="spacing" textLength="143" x="119.6094" y="272.1387">Leaf bundle, probably..</text><g id="elem_#11"><polygon fill="#F1F1F1" points="191.1094,362,203.1094,374,191.1094,386,179.1094,374,191.1094,362" style="stroke:#181818;stroke-width:0.5;"/></g><rect fill="#F1F1F1" height="47.9375" rx="12.5" ry="12.5" style="stroke:#181818;stroke-width:0.5;" width="98" x="167.1094" y="601"/><text fill="#000000" font-family="sans-serif" font-size="12" font-weight="bold" lengthAdjust="spacing" textLength="31" x="177.1094" y="622.1387">Leaf</text><text fill="#000000" font-family="sans-serif" font-size="12" lengthAdjust="spacing" textLength="43" x="212.1094" y="622.1387">bundle</text><text fill="#000000" font-family="monospace" font-size="12" lengthAdjust="spacing" textLength="56" x="177.1094" y="636.1074">index.md</text><g id="elem_#16"><polygon fill="#F1F1F1" points="207.1094,445,219.1094,457,207.1094,469,195.1094,457,207.1094,445" style="stroke:#181818;stroke-width:0.5;"/></g><g id="elem_#20"><polygon fill="#F1F1F1" points="261.1094,523,273.1094,535,261.1094,547,249.1094,535,261.1094,523" style="stroke:#181818;stroke-width:0.5;"/></g><rect fill="#F1F1F1" height="33.9688" rx="12.5" ry="12.5" style="stroke:#181818;stroke-width:0.5;" width="181" x="429.6094" y="357"/><text fill="#000000" font-family="sans-serif" font-size="12" lengthAdjust="spacing" textLength="161" x="439.6094" y="378.1387">Branch bundle, probably..</text><g id="elem_#29"><polygon fill="#F1F1F1" points="505.1094,445,517.1094,457,505.1094,469,493.1094,457,505.1094,445" style="stroke:#181818;stroke-width:0.5;"/></g><rect fill="#F1F1F1" height="47.9375" rx="12.5" ry="12.5" style="stroke:#181818;stroke-width:0.5;" width="116" x="429.1094" y="601"/><text fill="#000000" font-family="sans-serif" font-size="12" font-weight="bold" lengthAdjust="spacing" textLength="49" x="439.1094" y="622.1387">Branch</text><text fill="#000000" font-family="sans-serif" font-size="12" lengthAdjust="spacing" textLength="43" x="492.1094" y="622.1387">bundle</text><text fill="#000000" font-family="monospace" font-size="12" lengthAdjust="spacing" textLength="63" x="439.1094" y="636.1074">_index.md</text><g id="elem_#34"><polygon fill="#F1F1F1" points="453.1094,523,465.1094,535,453.1094,547,441.1094,535,453.1094,523" style="stroke:#181818;stroke-width:0.5;"/></g><ellipse cx="306.1094" cy="16" fill="#222222" rx="10" ry="10" style="stroke:none;stroke-width:1.0;"/><rect fill="#F1F1F1" height="33.9688" rx="12.5" ry="12.5" style="stroke:#181818;stroke-width:0.5;" width="156" x="228.1094" y="67"/><text fill="#000000" font-family="sans-serif" font-size="12" lengthAdjust="spacing" textLength="136" x="238.1094" y="88.1387">Page Bundle Decision</text><g id="elem_#5"><polygon fill="#F1F1F1" points="306.1094,142,318.1094,154,306.1094,166,294.1094,154,306.1094,142" style="stroke:#181818;stroke-width:0.5;"/></g><rect fill="#F1F1F1" height="33.9688" rx="12.5" ry="12.5" style="stroke:#181818;stroke-width:0.5;" width="91" x="305.6094" y="608"/><text fill="#000000" font-family="sans-serif" font-size="12" lengthAdjust="spacing" textLength="71" x="315.6094" y="629.1387">No bundles</text><ellipse cx="351.1094" cy="712" fill="none" rx="10" ry="10" style="stroke:#222222;stroke-width:1.0;"/><ellipse cx="351.6094" cy="712.5" fill="#222222" rx="6" ry="6" style="stroke:none;stroke-width:1.0;"/><!--MD5=[6c8556f4a65d1cbdefc15e310a3fb10e]
link start to beg--><g id="link_start_beg"><path d="M306.1094,26.18 C306.1094,35.27 306.1094,49.53 306.1094,61.49 " fill="none" id="start-to-beg" style="stroke:#181818;stroke-width:1.0;"/><polygon fill="#181818" points="306.1094,66.79,310.1094,57.79,306.1094,61.79,302.1094,57.79,306.1094,66.79" style="stroke:#181818;stroke-width:1.0;"/></g><!--MD5=[2a1fe62ecef23063ce14d89aecb1f534]
link beg to #5--><g id="link_beg_#5"><path d="M306.1094,101.12 C306.1094,111.92 306.1094,126.08 306.1094,136.88 " fill="none" id="beg-to-#5" style="stroke:#181818;stroke-width:1.0;"/><polygon fill="#181818" points="306.1094,141.89,310.1094,132.89,306.1094,136.89,302.1094,132.89,306.1094,141.89" style="stroke:#181818;stroke-width:1.0;"/><text fill="#000000" font-family="sans-serif" font-size="11" lengthAdjust="spacing" textLength="109" x="177.0125" y="133.5708">Is it a Single page?</text></g><!--MD5=[c9abdf49c44beef9c85213edf306c8d7]
link #5 to Leaf bundle, probably..--><g id="link_#5_Leaf bundle, probably.."><path d="M300.2494,160.71 C284.1094,176.43 238.4194,220.92 211.5494,247.09 " fill="none" id="#5-to-Leaf bundle, probably.." style="stroke:#181818;stroke-width:1.0;"/><polygon fill="#181818" points="207.7294,250.81,216.9708,247.4048,211.3145,247.3248,211.3945,241.6685,207.7294,250.81" style="stroke:#181818;stroke-width:1.0;"/><text fill="#000000" font-family="sans-serif" font-size="11" lengthAdjust="spacing" textLength="21" x="273.1094" y="197.2104">Yes</text></g><!--MD5=[4b2261236b1eee70a8835ae61f153444]
link Leaf bundle, probably.. to #11--><g id="link_Leaf bundle, probably.._#11"><path d="M191.1094,285.25 C191.1094,304.78 191.1094,337.35 191.1094,356.84 " fill="none" id="Leaf bundle, probably..-to-#11" style="stroke:#181818;stroke-width:1.0;"/><polygon fill="#181818" points="191.1094,361.97,195.1094,352.97,191.1094,356.97,187.1094,352.97,191.1094,361.97" style="stroke:#181818;stroke-width:1.0;"/><text fill="#000000" font-family="sans-serif" font-size="11" lengthAdjust="spacing" textLength="165" x="6" y="355.8837">Has images or attachments?</text></g><!--MD5=[c1ce00a27b1a13acff71dc030737842a]
link #11 to leaf--><g id="link_#11_leaf"><path d="M190.1594,385.43 C188.9194,399.11 186.7394,423.84 185.1094,445 C183.6094,464.54 182.7794,469.41 182.1094,489 C181.8994,495.22 181.2594,496.84 182.1094,503 C186.5894,535.49 197.5294,571.54 205.7994,595.77 " fill="none" id="#11-to-leaf" style="stroke:#181818;stroke-width:1.0;"/><polygon fill="#181818" points="207.5194,600.76,208.3706,590.948,205.8912,596.0325,200.8067,593.5531,207.5194,600.76" style="stroke:#181818;stroke-width:1.0;"/><text fill="#000000" font-family="sans-serif" font-size="11" lengthAdjust="spacing" textLength="20" x="183.1094" y="500.2104">yes</text></g><!--MD5=[0658803fd9d6f63080f99f302814a1bc]
link #11 to #16--><g id="link_#11_#16"><path d="M192.9494,384.29 C195.6994,398.25 200.9394,424.78 204.2194,441.36 " fill="none" id="#11-to-#16" style="stroke:#181818;stroke-width:1.0;"/><polygon fill="#181818" points="205.2494,446.57,207.4228,436.964,204.277,441.6655,199.5755,438.5197,205.2494,446.57" style="stroke:#181818;stroke-width:1.0;"/><text fill="#000000" font-family="sans-serif" font-size="11" lengthAdjust="spacing" textLength="14" x="202.1094" y="422.2104">no</text><text fill="#000000" font-family="sans-serif" font-size="11" lengthAdjust="spacing" textLength="96" x="87.4225" y="424.003">Split content into</text><text fill="#000000" font-family="sans-serif" font-size="11" lengthAdjust="spacing" textLength="79" x="97.9225" y="436.8077">multiple files?</text></g><!--MD5=[eb70fec908b070ff50b556a10d2df61d]
link #16 to leaf--><g id="link_#16_leaf"><path d="M207.6994,468.89 C209.0794,494.33 212.5494,558.31 214.5694,595.67 " fill="none" id="#16-to-leaf" style="stroke:#181818;stroke-width:1.0;"/><polygon fill="#181818" points="214.8594,600.98,218.3656,591.7764,214.5883,595.9874,210.3774,592.2101,214.8594,600.98" style="stroke:#181818;stroke-width:1.0;"/><text fill="#000000" font-family="sans-serif" font-size="11" lengthAdjust="spacing" textLength="20" x="213.1094" y="539.2104">yes</text></g><!--MD5=[bf7d3ec7d15cb1e09a4f434ca56efe65]
link #16 to #20--><g id="link_#16_#20"><path d="M211.7094,464.48 C221.0394,477.6 242.2394,507.44 253.5894,523.42 " fill="none" id="#16-to-#20" style="stroke:#181818;stroke-width:1.0;"/><polygon fill="#181818" points="256.5194,527.54,254.5944,517.8811,253.6348,523.456,248.06,522.4963,256.5194,527.54" style="stroke:#181818;stroke-width:1.0;"/><text fill="#000000" font-family="sans-serif" font-size="11" lengthAdjust="spacing" textLength="14" x="239.1094" y="500.2104">no</text><text fill="#000000" font-family="sans-serif" font-size="11" font-weight="bold" lengthAdjust="spacing" textLength="39" x="86.9663" y="523.2613">Really</text><text fill="#000000" font-family="sans-serif" font-size="11" lengthAdjust="spacing" textLength="111" x="129.9663" y="523.2613">want a leaf bundle?</text></g><!--MD5=[ed7a9a72c2e718be15aa3faf00274fe7]
link #20 to leaf--><g id="link_#20_leaf"><path d="M257.2694,543.5 C251.3594,555.07 239.6994,577.86 230.2994,596.25 " fill="none" id="#20-to-leaf" style="stroke:#181818;stroke-width:1.0;"/><polygon fill="#181818" points="227.9594,600.82,235.6098,594.6174,230.2296,596.3651,228.482,590.985,227.9594,600.82" style="stroke:#181818;stroke-width:1.0;"/><text fill="#000000" font-family="sans-serif" font-size="11" lengthAdjust="spacing" textLength="22" x="244.1094" y="578.2104">YES</text></g><!--MD5=[5ed05b2e3103cecac64cf943d7e812dd]
link #20 to no_bundles--><g id="link_#20_no_bundles"><path d="M266.7394,541.5 C279.2694,553.76 310.0094,583.81 330.7094,604.05 " fill="none" id="#20-to-no_bundles" style="stroke:#181818;stroke-width:1.0;"/><polygon fill="#181818" points="334.4494,607.71,330.8212,598.5538,330.8783,604.2104,325.2217,604.2675,334.4494,607.71" style="stroke:#181818;stroke-width:1.0;"/><text fill="#000000" font-family="sans-serif" font-size="11" lengthAdjust="spacing" textLength="14" x="307.1094" y="578.2104">no</text></g><!--MD5=[cd29e3d4068baee23cbdd66d2f2e72f5]
link #5 to Branch bundle, probably..--><g id="link_#5_Branch bundle, probably.."><path d="M311.8294,160.83 C338.7894,188.29 453.7394,305.39 500.3594,352.88 " fill="none" id="#5-to-Branch bundle, probably.." style="stroke:#181818;stroke-width:1.0;"/><polygon fill="#181818" points="504.1194,356.71,500.6769,347.4824,500.6197,353.1389,494.9632,353.0818,504.1194,356.71" style="stroke:#181818;stroke-width:1.0;"/><text fill="#000000" font-family="sans-serif" font-size="11" lengthAdjust="spacing" textLength="164" x="434.1094" y="265.7104">No, it's a home or section or</text><text fill="#000000" font-family="sans-serif" font-size="11" lengthAdjust="spacing" textLength="134" x="449.1094" y="278.5151">taxonomy or term page</text></g><!--MD5=[35af10cef6eeb91061feffbf9990a20f]
link Branch bundle, probably.. to #29--><g id="link_Branch bundle, probably.._#29"><path d="M517.1494,391 C514.4294,405.66 510.4494,427.16 507.8194,441.37 " fill="none" id="Branch bundle, probably..-to-#29" style="stroke:#181818;stroke-width:1.0;"/><polygon fill="#181818" points="506.8494,446.6,512.4281,438.4835,507.7639,441.6843,504.563,437.0202,506.8494,446.6" style="stroke:#181818;stroke-width:1.0;"/><text fill="#000000" font-family="sans-serif" font-size="11" lengthAdjust="spacing" textLength="145" x="533.2769" y="412.4245">Need to set front-matter?</text><text fill="#000000" font-family="sans-serif" font-size="11" lengthAdjust="spacing" textLength="64" x="573.7769" y="425.2292">or content?</text><text fill="#000000" font-family="sans-serif" font-size="11" lengthAdjust="spacing" textLength="165" x="525.2769" y="438.0339">Has images or attachments?</text></g><!--MD5=[e49831a16a5148c0d8baae4c36be33df]
link #29 to branch--><g id="link_#29_branch"><path d="M505.3894,468.94 C505.7694,490.53 505.7394,540.06 499.1094,581 C498.3494,585.72 497.2494,590.66 496.0394,595.44 " fill="none" id="#29-to-branch" style="stroke:#181818;stroke-width:1.0;"/><polygon fill="#181818" points="494.6694,600.55,500.8505,592.8823,495.9559,595.7184,493.1198,590.8238,494.6694,600.55" style="stroke:#181818;stroke-width:1.0;"/><text fill="#000000" font-family="sans-serif" font-size="11" lengthAdjust="spacing" textLength="20" x="505.1094" y="539.2104">yes</text></g><!--MD5=[fdabe160d0ad1064e39dca462ac23f38]
link #29 to #34--><g id="link_#29_#34"><path d="M500.3294,464.61 C495.8394,470.86 488.9494,480.52 483.1094,489 C475.2194,500.46 466.4194,513.73 460.3994,522.88 " fill="none" id="#29-to-#34" style="stroke:#181818;stroke-width:1.0;"/><polygon fill="#181818" points="457.5194,527.25,465.8063,521.9276,460.2664,523.0722,459.1218,517.5324,457.5194,527.25" style="stroke:#181818;stroke-width:1.0;"/><text fill="#000000" font-family="sans-serif" font-size="11" lengthAdjust="spacing" textLength="14" x="484.1094" y="500.2104">no</text><text fill="#000000" font-family="sans-serif" font-size="11" font-weight="bold" lengthAdjust="spacing" textLength="39" x="473.0586" y="523.1663">Really</text><text fill="#000000" font-family="sans-serif" font-size="11" lengthAdjust="spacing" textLength="129" x="516.0586" y="523.1663">want a branch bundle?</text></g><!--MD5=[1e63f6b05c75fed89d2be0cc0f2b17c7]
link #34 to branch--><g id="link_#34_branch"><path d="M456.2494,544.12 C460.7594,555.79 469.2894,577.87 476.2394,595.87 " fill="none" id="#34-to-branch" style="stroke:#181818;stroke-width:1.0;"/><polygon fill="#181818" points="478.1494,600.82,478.6459,590.9837,476.3516,596.1544,471.1809,593.8601,478.1494,600.82" style="stroke:#181818;stroke-width:1.0;"/><text fill="#000000" font-family="sans-serif" font-size="11" lengthAdjust="spacing" textLength="22" x="471.1094" y="578.2104">YES</text></g><!--MD5=[eb9778561bbdb05b397dd3d728ac5b97]
link #34 to no_bundles--><g id="link_#34_no_bundles"><path d="M447.0294,541.24 C432.9294,553.41 397.3494,584.11 373.7094,604.5 " fill="none" id="#34-to-no_bundles" style="stroke:#181818;stroke-width:1.0;"/><polygon fill="#181818" points="369.7394,607.93,379.1644,605.0719,373.5225,604.6608,373.9337,599.0189,369.7394,607.93" style="stroke:#181818;stroke-width:1.0;"/><text fill="#000000" font-family="sans-serif" font-size="11" lengthAdjust="spacing" textLength="14" x="415.1094" y="578.2104">no</text></g><!--MD5=[6e558edfd7839f7cbc9a105caf8dc600]
link no_bundles to end--><g id="link_no_bundles_end"><path d="M351.1094,642.39 C351.1094,658.2 351.1094,681.88 351.1094,696.88 " fill="none" id="no_bundles-to-end" style="stroke:#181818;stroke-width:1.0;"/><polygon fill="#181818" points="351.1094,701.98,355.1094,692.98,351.1094,696.98,347.1094,692.98,351.1094,701.98" style="stroke:#181818;stroke-width:1.0;"/></g><!--MD5=[536af31dc655f8095088c0eb5f869028]
link leaf to end--><g id="link_leaf_end"><path d="M252.6394,649 C281.1494,666.95 319.0594,690.82 338.4794,703.05 " fill="none" id="leaf-to-end" style="stroke:#181818;stroke-width:1.0;"/><polygon fill="#181818" points="342.9994,705.89,337.5072,697.7147,338.7658,703.2297,333.2508,704.4884,342.9994,705.89" style="stroke:#181818;stroke-width:1.0;"/></g><!--MD5=[6f053fbeb0d5cdeba86fa932474f3b39]
link branch to end--><g id="link_branch_end"><path d="M450.3094,649 C421.5894,666.95 383.3894,690.82 363.8294,703.05 " fill="none" id="branch-to-end" style="stroke:#181818;stroke-width:1.0;"/><polygon fill="#181818" points="359.2794,705.89,369.0301,704.5032,363.517,703.2362,364.784,697.723,359.2794,705.89" style="stroke:#181818;stroke-width:1.0;"/></g><!--MD5=[7a26d49de097c1abfd0fbd1d64ec9fcb]
@startuml
(*) - -> "Page Bundle Decision" as beg

if "Is it a Single page?" then
  partition leaf {
  - ->[Yes] "Leaf bundle, probably.."
  -down-> if "Has images or attachments?" then
            - ->[yes] "**Leaf** bundle
                      ""index.md""
                     " as leaf
          else
            - ->[no] if "Split content into \nmultiple files?" then
                      - ->[yes] leaf
                    else
                      - ->[no] if "**Really** want a leaf bundle?" then
                                - ->[YES] leaf
  }
                              else
                                - ->[no] "No bundles" as no_bundles
                              endif
                    endif
          endif
else
  partition branch {
  - ->[No, it's a home or section or\ntaxonomy or term page]  "Branch bundle, probably.."
  -down-> if "Need to set front-matter? \nor content? \nHas images or attachments?" then
            - ->[yes] "**Branch** bundle
                      ""_index.md""
                     " as branch
          else
            - ->[no] if "**Really** want a branch bundle?" then
                      - ->[YES] branch
  }
                    else
                      - ->[no] no_bundles
                    endif
          endif
endif

no_bundles - -> (*)
leaf - -> (*)
branch - -> (*)
@enduml

PlantUML version 1.2022.2(Sat Mar 05 11:30:19 EST 2022)
(GPL source distribution)
Java Runtime: OpenJDK Runtime Environment
JVM: OpenJDK 64-Bit Server VM
Default Encoding: UTF-8
Language: en
Country: US
--></g></svg>